PathFileType	4	(X/Y/Z)	S00_P01_T02_Participants1-2_P1_0-100.trc
DataRate	CameraRate	NumFrames	NumMarkers	Units	OrigDataRate	OrigDataStartFrame	OrigNumFrames
60	60	5	21	m	60	25	100
Frame#	Time	RHip			RKnee			RAnkle			RBigToe			RSmallToe			RHeel			LHip			LKnee			LAnkle			LBigToe			LSmallToe			LHeel			Neck			Head			Nose			RShoulder			RElbow			RWrist			LShoulder			LElbow			LWrist		
		X1	Y1	Z1	X2	Y2	Z2	X3	Y3	Z3	X4	Y4	Z4	X5	Y5	Z5	X6	Y6	Z6	X7	Y7	Z7	X8	Y8	Z8	X9	Y9	Z9	X10	Y10	Z10	X11	Y11	Z11	X12	Y12	Z12	X13	Y13	Z13	X14	Y14	Z14	X15	Y15	Z15	X16	Y16	Z16	X17	Y17	Z17	X18	Y18	Z18	X19	Y19	Z19	X20	Y20	Z20	X21	Y21	Z21
26	0.4333333333333333	-1.0510925859022437	0.9793910471616085	-0.9742792383705852	-0.8759229573596327	0.9687487486937227	-0.7311344521801765	-0.8881314949187311	0.9480383930194366	-0.9651711297161404	-0.7936562560166478	0.9435643291168571	-1.0458952453787826	-0.8162416176210874	0.9231427647728035	-1.0398238267018485	-0.9111262549821306	0.9549239031968645	-1.006944932481191	-1.0516356937603888	0.9800021070630262	-1.1184611871329808	-0.87805273376476	0.971217797639155	-1.3566299139645654	-0.8897713119466323	0.9491665084508587	-1.1237591670530211	-0.7892633358423531	0.9409515799855991	-1.0577638026797067	-0.8129954729227263	0.9211584346918691	-1.0616495749220018	-0.911590223956293	0.95581192502686	-1.079180175734247	-1.0896141334924825	1.3853914427682126	-1.057020562544002	-1.0381681436313714	1.5468117184247645	-1.0582635417138673	-1.0032599938694147	1.4488522522358096	-1.0566160508205222	-1.0967927541831517	1.3327564911481	-0.9260500718171002	-1.0384322692788335	1.1500286017757926	-0.8549632804170015	-0.8720239406076655	1.0868955084297518	-0.9313701797612033	-1.080940049114359	1.337416939138869	-1.178148369620482	-1.044453727389863	1.1650277585982307	-1.2645162673298465	-0.9085861926530457	1.1195926118835813	-1.1252931208362513
27	0.45	-1.0510904690464864	0.978070613641216	-0.9742813332192324	-0.8759203580531	0.9674286254162583	-0.7311388597859557	-0.8876079453843616	0.9464826421972375	-0.9651826227928476	-0.7929616661933269	0.9419644004234987	-1.0456993942849817	-0.8155533422525748	0.9215412720525668	-1.0396565873581227	-0.9105192191344869	0.9533220669260428	-1.0070101533752907	-1.0516338363082696	0.9786818021453769	-1.1184632608705214	-0.8780516558098552	0.9698980353254136	-1.356633203254517	-0.8897697146016422	0.9478465057883264	-1.1237623968479888	-0.7892616631242512	0.9396316710943546	-1.0577679475067974	-0.8129937950537823	0.9198385608371842	-1.0616535062150418	-0.9115884988888502	0.9544918389570923	-1.0791833061751959	-1.0897050324250226	1.3840508756725791	-1.0570830483454396	-1.0381618032583457	1.5454939941663395	-1.0582607620263873	-1.0010101945733534	1.4480672363590303	-1.0548526452157425	-1.096776414482962	1.3314405500805564	-0.9260389783855546	-1.0385116612849603	1.1490368841287821	-0.8541281508061008	-0.8725265706512036	1.0851774257075426	-0.9308513069705702	-1.080937577606211	1.3360954857348146	-1.178152668729155	-1.0444518923974768	1.1637070747680969	-1.2645196660347922	-0.9084282695837991	1.117474983673316	-1.1257890799799115
28	0.4666666666666667	-1.051087961327881	0.9765056935184186	-0.9742838132762084	-0.8759172778176478	0.965864072416311	-0.7311440869487367	-0.8869873175926258	0.9446390295399374	-0.9651945348123772	-0.7921388614192063	0.9400687404372404	-1.0454650565627432	-0.8147379448024624	0.9196437230087049	-1.0394561727514717	-0.909799481081137	0.9514238053285193	-1.0070854539649092	-1.0516316361519449	0.9771170343000352	-1.1184657130918092	-0.8780503787992501	0.96833390995644	-1.3566370939659895	-0.8897678218806283	0.9462820958138359	-1.123766221539849	-0.7892596806440987	0.9380673720800644	-1.0577728590786744	-0.8129918064303385	0.9182743033768593	-1.061658164497715	-0.911586454909969	0.9529273302054362	-1.079187013569567	-1.089849005638792	1.3824535476529947	-1.0571813787940205	-1.0381542880002874	1.543932280845122	-1.0582574590195621	-0.9978001923630381	1.4472653411197354	-1.0523372536313413	-1.0967656167477058	1.329879146540801	-0.9260320638080966	-1.038606570061382	1.1478662629828242	-0.8531399814117211	-0.8731270848372804	1.0831409954819105	-0.9302291976284953	-1.0809346535821942	1.3345293567439234	-1.1781577476939944	-1.0444497207090186	1.1621418576615163	-1.2645236812740048	-0.9082450528715701	1.1149668504036438	-1.126380754931575
29	0.4833333333333333	-1.0510850767460773	0.9747046949392907	-0.9742866639162774	-0.8759137333664279	0.9640634955849572	-0.7311501073097545	-0.8862728820695204	0.9425175604940575	-0.9652059492000963	-0.7911924659400659	0.9378877895455827	-1.0451923843424233	-0.8137999716095561	0.9174605505177238	-1.0392225592834043	-0.9089707620042825	0.9492394027583315	-1.0071694332012466	-1.0516291057014586	0.9753162107872588	-1.1184685279245519	-0.8780489098439388	0.9665338250445664	-1.3566415614339906	-0.889765644128957	0.9444816836906614	-1.1237706190463441	-0.7892573990169183	0.936267087422912	-1.0577785106707644	-0.8129895176810858	0.9164740665828741	-1.0616635242990389	-0.9115841032341928	0.9511268045023917	-1.0791912766905492	-1.0900243361468909	1.3806130308023747	-1.0573009230535433	-1.0381456377678908	1.54213496733449	-1.0582536461741823	-0.9941756544729246	1.446324979686268	-1.0494985960955718	-1.0967715409363827	1.3280783326282792	-0.9260374496641982	-1.0387168903862876	1.1465253775528579	-0.8520049069247652	-0.8738246476630345	1.0807971711498785	-0.9295035799380028	-1.0809312952712862	1.332726966736547	-1.1781635712287986	-1.0444472254994541	1.160340516858307	-1.2645282851642752	-0.9080395022496469	1.1120825145829283	-1.1270668829834445
30	0.5	-1.0510818313695798	0.9726772943393835	-0.9742898684064615	-0.8759097439157763	0.9620365687776673	-0.7311568904343594	-0.8854684108273148	0.9401297459390269	-0.9652158603553875	-0.7901277956616205	0.9354335505822662	-1.0448816184158487	-0.812744651082329	0.915003749804289	-1.0389557848908686	-0.9080373580004093	0.9467806923073898	-1.0072605357857525	-1.0516262591913852	0.9732890070275774	-1.1184716872875056	-0.8780472570999316	0.9645074517144495	-1.3566465775184808	-0.8897631932307398	0.9424549424359144	-1.1237755640613918	-0.7892548304509923	0.9342404893585873	-1.0577848715560738	-0.812986941031143	0.9144475224504502	-1.0616695563420169	-0.9115814567426677	0.9490999355156466	-1.0791960712031166	-1.0901565948106458	1.3785566455270675	-1.0573916638299845	-1.0381358985138835	1.5401117080089837	-1.0582493392864358	-0.9909605932641377	1.4450598493736821	-1.0469835640725436	-1.0968095721980777	1.3260445487704193	-0.9260663080886282	-1.0388424755922703	1.1450240307467456	-0.8507299652240399	-0.8746181492166851	1.0781586595689723	-0.9286743201820464	-1.0809275234868991	1.3306979995474184	-1.1781700992330157	-1.044444421826794	1.158312730454587	-1.2645334460231799	-0.9078149147298613	1.1088384156624613	-1.1278458827158475
